<svg id="Ebene_1" data-name="Ebene 1" xmlns="http://www.w3.org/2000/svg" xmlns:xlink="http://www.w3.org/1999/xlink" viewBox="0 0 813.07 466.12"><defs><style>.cls-1{fill:url(#Unbenannter_Verlauf_87);}.cls-2{fill:#fff;}.cls-3{fill:#c1272d;}.cls-4{fill:url(#Unbenannter_Verlauf_172);}</style><radialGradient id="Unbenannter_Verlauf_87" cx="395.29" cy="233.06" r="233.06" gradientUnits="userSpaceOnUse"><stop offset="0" stop-color="#fff"/><stop offset="0.05" stop-color="#e1e1e1"/><stop offset="0.15" stop-color="#adadad"/><stop offset="0.26" stop-color="#7f7f7f"/><stop offset="0.37" stop-color="#585858"/><stop offset="0.48" stop-color="#383838"/><stop offset="0.6" stop-color="#1f1f1f"/><stop offset="0.72" stop-color="#0e0e0e"/><stop offset="0.85" stop-color="#030303"/><stop offset="1"/></radialGradient><radialGradient id="Unbenannter_Verlauf_172" cx="394.11" cy="233.89" r="109.96" gradientUnits="userSpaceOnUse"><stop offset="0"/><stop offset="0.12"/><stop offset="0.85"/><stop offset="0.87" stop-color="#121212"/><stop offset="0.88" stop-color="#1a1a1a"/><stop offset="0.89" stop-color="#202020"/><stop offset="0.91" stop-color="#2e2e2e"/><stop offset="0.94" stop-color="#333"/><stop offset="0.97" stop-color="#1a1a1a"/><stop offset="1"/></radialGradient></defs><title>oldtimer_logo</title><circle class="cls-1" cx="395.29" cy="233.06" r="233"/><path class="cls-2" d="M521,307.94A183,183,0,0,1,697.27,540.32a181.2,181.2,0,0,1-66.52,97.15,184.12,184.12,0,0,1-51.54,27,183,183,0,0,1-167.85-320,183.79,183.79,0,0,1,51.55-27,181.88,181.88,0,0,1,58-9.53h0m0-38c-96.62,0-185.36,63.87-212.69,161.47C275.35,548.94,344,670.89,461.48,703.8a221.11,221.11,0,0,0,59.7,8.24c96.61,0,185.36-63.87,212.69-161.47,32.9-117.53-35.7-239.48-153.23-272.39a221.11,221.11,0,0,0-59.7-8.24Z" transform="translate(-125.71 -256.94)"/><path class="cls-3" d="M521.48,348.28A142.51,142.51,0,0,1,658.73,529.17a141.06,141.06,0,0,1-51.79,75.62,142.07,142.07,0,0,1-123.78,23.15,142.45,142.45,0,0,1-47-251.19,143.4,143.4,0,0,1,85.3-28.47h0m0-27a169.6,169.6,0,1,0,45.77,6.32,169.54,169.54,0,0,0-45.77-6.32Z" transform="translate(-125.71 -256.94)"/><circle class="cls-4" cx="394.11" cy="233.89" r="109.93"/><path class="cls-2" d="M305,464.54q0,18.68-10.5,38a121.4,121.4,0,0,1-29.05,35,152.34,152.34,0,0,1-38.27,24q-20.44,8.85-37.54,8.85-22.45,0-36.44-15.26t-14-39.79q0-22.47,13.91-45.78a132.46,132.46,0,0,1,37.6-40.16,151.69,151.69,0,0,1,37.9-19.78q21.06-7.56,38-7.56t26.92,8.17q10.06,8.19,10.07,21.85a55.39,55.39,0,0,1-2,13.31A58.93,58.93,0,0,1,305,464.54Zm-3.3-32.23q0-12.33-8.66-19.84T270.19,405q-28.08,0-56.76,18.67a148.22,148.22,0,0,0-45.05,46q-18.44,29-18.43,57.46,0,18,10.68,29.39t27.53,11.35q34.17,0,68.72-35.16T295.21,459q-4.14,7.32-14.83,17.28t-14.46,9.94a.86.86,0,0,1-1-1q0-.62,1.95-1.71,19.78-11,28.57-29.05,0-15.27-8.91-24.24t-24.17-9q-28.32,0-58.17,30.21t-29.85,59q0,11.48,5.37,18.61a16.89,16.89,0,0,0,14.17,7.14,17.21,17.21,0,0,0,8.48-2.44c2.89-1.63,4.33-3.21,4.33-4.76-.08-.49-.24-.73-.49-.73l-1.09.49q-1.47,1.46-4.77,1.46-5.73,0-5.73-6.71a9.42,9.42,0,0,1,2.81-7,9.15,9.15,0,0,1,6.71-2.81q7.82,0,7.81,8.67,0,6.47-5.55,11.23a19.39,19.39,0,0,1-13,4.76q-10.5,0-17.52-8.61t-7-21.54q0-29.79,31.07-59.39t62.19-29.6a45.37,45.37,0,0,1,23.81,6.29q10.49,6.29,14.28,16.41A34,34,0,0,0,301.68,432.31Z" transform="translate(-125.71 -256.94)"/><path d="M189.62,583.87c-18.84,0-34.45-6.61-46.39-19.64-11.63-12.69-17.52-29.15-17.52-48.91,0-17.38,5.32-35.11,15.82-52.7a146.38,146.38,0,0,1,41.32-44.21,165.75,165.75,0,0,1,41.21-21.51c15.44-5.55,29.77-8.36,42.59-8.36,14.35,0,26.27,3.76,35.42,11.19a41.55,41.55,0,0,1,7.09,7.33L314.89,397l-1.66,16.87a42.47,42.47,0,0,1,3.91,18.24,62.13,62.13,0,0,1-1.48,12.79,71.69,71.69,0,0,1,2.82,19.69c0,14.66-4.08,29.62-12.13,44.46a135.56,135.56,0,0,1-32.23,38.86,166.47,166.47,0,0,1-41.6,26C217.25,580.52,202.82,583.87,189.62,583.87ZM165,537.9a24.18,24.18,0,0,0,5.46,9.31c4.56,4.84,10.18,7.1,17.7,7.1,18.92,0,38.8-10.47,59.09-31.12a149.16,149.16,0,0,0,19-23.43,14.33,14.33,0,0,1-14.84-14.47c0-3.88,1.53-9.37,8.84-13.48,9.77-5.43,16.83-12.1,21.55-20.36-.46-5-2.06-8.82-4.86-11.64-3.33-3.36-8.11-5-14.59-5-15,0-31.39,8.82-48.57,26.2-15.9,16.1-24.56,31.54-25.79,46a22.55,22.55,0,0,1,16.13-6.64c12.75,0,21.31,8.91,21.31,22.17,0,8.29-3.55,15.72-10.27,21.48a33,33,0,0,1-21.78,8c-11.07,0-20.74-4.69-28-13.58C165.28,538.26,165.14,538.08,165,537.9Zm33.45-15.69Zm-2.22-.4Zm66.43-48.46Z" transform="translate(-125.71 -256.94)"/><path class="cls-2" d="M363.21,437.31q-51.27,85.33-59.76,100.35T295,557.55c0,3.66,1.55,5.5,4.64,5.5q10.27,0,37.65-38.76c.41-.81.9-1.22,1.47-1.22.33.08.49.32.49.73s-.41,1.14-1.22,2L332.74,533q-23.1,31.9-34.1,31.91a10.79,10.79,0,0,1-8.61-4,15,15,0,0,1-3.36-10.07,29,29,0,0,1,3.11-13q3.12-6.29,21.18-36.32,22.1-36.74,37.23-63.72a25.57,25.57,0,0,0,6.47,1A24.14,24.14,0,0,0,363.21,437.31Z" transform="translate(-125.71 -256.94)"/><path d="M298.64,578.38a24.39,24.39,0,0,1-18.91-8.75,28.58,28.58,0,0,1-6.56-18.79,42.55,42.55,0,0,1,4.51-19c1.45-2.92,5.27-10,21.71-37.29,14.6-24.27,27.06-45.6,37-63.36l5.13-9.15,10.13,2.71a12.25,12.25,0,0,0,3,.52,10.69,10.69,0,0,0,3.81-.61l36.24-13.58-19.93,33.18q-24.54,40.85-39.33,65.66a14.85,14.85,0,0,1,3.28-.36h1.68L342,510a14.2,14.2,0,0,1,10.68,13.82,15.62,15.62,0,0,1-4.29,10.57l-4.78,6.55C324.4,567.51,311.35,578.38,298.64,578.38Z" transform="translate(-125.71 -256.94)"/><path class="cls-2" d="M450,438.53q-45.78,72.77-57.74,93-12.09,20.64-12.09,26c0,3.66,1.68,5.5,5,5.5q11.12,0,37.77-38.76c.49-.81.93-1.22,1.34-1.22a.65.65,0,0,1,.74.73,13.82,13.82,0,0,1-1.23,2L418.56,533q-23.1,31.9-34.1,31.91a11.43,11.43,0,0,1-9.16-4.21,16.18,16.18,0,0,1-3.55-10.81q0-6.58,4.4-15.26-21.37,30.28-31.74,30.28a13.35,13.35,0,0,1-10.87-5.56q-4.4-5.55-4.39-14,0-20.15,25-36.5,19.9-13.07,31.25-13.06,7.57,0,7.57,7.32a17.94,17.94,0,0,1-2.07,7.69l43.58-73a27,27,0,0,0,7.93,1.22Q443.41,439,450,438.53Zm-58.84,65.56q0-6.48-6-6.47-11,0-29,21.91t-18,35.34q0,8.18,6.72,8.18,9.77,0,33.57-33.94Q391.16,510.79,391.16,504.09Z" transform="translate(-125.71 -256.94)"/><path d="M384.46,578.38a25.06,25.06,0,0,1-19.5-9l-.24-.29c-7.33,6.44-13.83,9.32-20.31,9.32-8.51,0-15.93-3.69-21.45-10.68-4.85-6.13-7.31-13.65-7.31-22.35,0-18.21,10.48-34.3,31.14-47.8,15.85-10.41,28.13-15.26,38.63-15.26a24.26,24.26,0,0,1,6.32.8l36.57-61.27,10.1,3.06a13.69,13.69,0,0,0,3.91.64c.34,0,1.73-.08,6.68-.45l26.66-2-14.24,22.63q-25.12,40-40.14,64.19a13.72,13.72,0,0,1,3-.34,14.09,14.09,0,0,1,14.24,14.23V526l-.71,2.09a20.31,20.31,0,0,1-2.91,5.33l-.19.28-5.26,7.21C410.22,567.51,397.17,578.38,384.46,578.38Zm.94-67.28Z" transform="translate(-125.71 -256.94)"/><path class="cls-2" d="M755.66,412.29q0,6.58-13.18,11.17T710.25,428q-19.15,0-47.6-5.25-15,7.81-27.47,23.13t-26.73,43.4q-14.3,28.07-20.94,37.41a85.4,85.4,0,0,1-18.25,18.13q-30.64,22.7-63.6,22.7-17.58,0-28.74-7.44t-11.17-19.29a15.47,15.47,0,0,1,3.54-10.25,10.63,10.63,0,0,1,8.42-4.28q7.94,0,7.93,8.3a9.88,9.88,0,0,1-2.44,6.72,7.64,7.64,0,0,1-6,2.81c-3.83,0-5.74-1.88-5.74-5.62,0-2-.32-2.93-1-2.93-1.39,0-2.08,2-2.08,6q0,9.88,10.2,16.73t25.08,6.83q32.71,0,58.72-29.54,12.2-13.8,31.49-45.53,31.5-51.51,65.8-67.75-6.6-1.1-19.78-4-31-6.7-47.48-6.71c-1.15,0-4.56.16-10.26.48a51.27,51.27,0,0,1,5.74,24.54q0,26.87-20.39,50.42T524,510.56q-9.65,0-15.68-6.41t-6-16.54q0-13.92,10.55-30.83a109.51,109.51,0,0,1,27.35-29.54A101.7,101.7,0,0,1,577,409.6q-9.63-13.05-27.44-13.06-15,0-30.32,8.75a90.57,90.57,0,0,0-26.9,23.78c-1.13,1.55-1.91,2.32-2.31,2.32a1,1,0,0,1-1-.73q0-2.07,10-12.11,24-24,50.26-24,20.37,0,31,14.28,14.76-4.28,33.93-4.27a123.37,123.37,0,0,1,18.07,1.22q8.67,1.35,42.48,8.3,28.2-12.33,54.2-12.33Q755.66,401.79,755.66,412.29ZM583.18,430.6a37.24,37.24,0,0,0-4.52-18.07q-27.35,4.52-50.9,28.2T504.2,487.36a21.15,21.15,0,0,0,5.43,14.77,17.35,17.35,0,0,0,13.37,6q20.63,0,40.4-25.45T583.18,430.6Zm170.53-18.07q0-3.54-6.9-6t-17.39-2.44a122.62,122.62,0,0,0-50.66,11q3,.48,16.23,2.93a184.88,184.88,0,0,0,34.67,3.78,46.76,46.76,0,0,0,17-2.75Q753.71,416.32,753.71,412.53Z" transform="translate(-125.71 -256.94)"/><path d="M505.66,581.06c-14.37,0-26.56-3.27-36.23-9.71-14.2-9.46-17.18-21.82-17.18-30.52A29.16,29.16,0,0,1,458.89,522a24.24,24.24,0,0,1,18.82-9.16c12.82,0,21.43,8.76,21.43,21.8a23.42,23.42,0,0,1-5.75,15.58l-.13.14a38.41,38.41,0,0,0,10.45,1.3c17.91,0,33.8-8.16,48.58-25A206.57,206.57,0,0,0,567.78,506c-13.54,12-28.23,18.07-43.81,18.07-10.11,0-18.93-3.69-25.5-10.65-6.36-6.75-9.72-15.67-9.72-25.8,0-11.81,4.24-24.58,12.6-38A123.22,123.22,0,0,1,532,416.46q3.59-2.7,7.31-5.09A54.55,54.55,0,0,0,525.89,417a77.35,77.35,0,0,0-22.81,20.19c-1.77,2.4-5.79,7.69-13.1,7.69a14.51,14.51,0,0,1-13.78-9.95l-.7-2.08v-2.2c0-6.5,3.65-11.32,13.95-21.64,18.59-18.54,38.71-27.93,59.81-27.93,14.24,0,26.36,4.38,35.55,12.77a146.94,146.94,0,0,1,29.37-2.76,136.8,136.8,0,0,1,20.06,1.37c5.78.89,18.57,3.38,39.09,7.58,19-7.8,37.73-11.76,55.6-11.76,10.71,0,18.89,1.17,25,3.56,13.77,5.4,15.25,16.09,15.25,20.44,0,7.39-3.86,17.54-22.25,23.92-10.17,3.53-22.51,5.33-36.66,5.33-12.41,0-27.59-1.55-45.19-4.61a78.38,78.38,0,0,0-19.4,17.5c-7.66,9.43-16.14,23.23-25.18,41-9.92,19.49-17.1,32.29-22,39.12a99.57,99.57,0,0,1-21.09,21.06l-.12.08C554.59,572.53,530.49,581.06,505.66,581.06Zm64-152.32c-11.26,4-21.9,11.07-32.29,21.51-13,13.1-19.63,25.58-19.63,37.11,0,3.15,1,4.65,1.92,5.69a3.93,3.93,0,0,0,3.38,1.56c9.3,0,19.31-6.8,29.74-20.23,11.4-14.67,16.94-29,16.94-43.78Q569.68,429.66,569.62,428.74Zm31-3.3a72.26,72.26,0,0,1,.84,11.14,81.86,81.86,0,0,1-3.29,23.05,201.2,201.2,0,0,1,27.57-30.49A245.79,245.79,0,0,0,600.6,425.44Z" transform="translate(-125.71 -256.94)"/><path class="cls-2" d="M658,523.8a13.82,13.82,0,0,1-1.23,2L651.47,533q-23,31.9-35.07,31.91a12.68,12.68,0,0,1-9.6-4.09,14.28,14.28,0,0,1-3.85-10.2q0-7.07,8.43-21.48l19-32.35a28.94,28.94,0,0,0,6,.86,70.46,70.46,0,0,0,9.28-.86L618,542.29q-6,9.9-6,15.26c0,3.66,1.91,5.5,5.74,5.5q10.88,0,38.26-38.76c.41-.81.82-1.22,1.22-1.22A.65.65,0,0,1,658,523.8Zm-1.77-50.48a11.38,11.38,0,0,1-3.61,8A10.8,10.8,0,0,1,644.7,485q-5.49,0-5.49-5.49,0-4,3.78-7.75t7.94-3.72C654.42,468.08,656.18,469.83,656.18,473.32Z" transform="translate(-125.71 -256.94)"/><path d="M616.4,578.38A26.06,26.06,0,0,1,597,570a27.8,27.8,0,0,1-7.52-19.45c0-7.32,3.27-16.31,10.27-28.29l24.07-40.88,2,.46a22.15,22.15,0,0,1-.12-2.33c0-4.42,1.35-11,7.81-17.37s13-7.6,17.41-7.6c11,0,18.75,7.71,18.75,18.74a23.46,23.46,0,0,1-.93,6.5l3.33-.47L653.37,510.1a14.23,14.23,0,0,1,18.08,13.7V526l-.69,2.07a20.49,20.49,0,0,1-2.93,5.38l-.19.28-5.26,7.21C643.49,567.16,629.72,578.38,616.4,578.38Zm35.75-96.62ZM643,472a3.65,3.65,0,0,0-.27,1.37c0,3.94,4.31,8.26,8.25,8.26a4.07,4.07,0,0,0,1.44-.26,4.53,4.53,0,0,0,.34-1.77c0-3.82-4.19-8-8-8A4,4,0,0,0,643,472Zm9.85,9.17Zm-10.11-9Z" transform="translate(-125.71 -256.94)"/><path class="cls-2" d="M793.93,523.8a13.31,13.31,0,0,1-1.22,2L787.46,533q-23,31.9-34,31.91a11.83,11.83,0,0,1-9.41-4.28,16.28,16.28,0,0,1-3.67-11q0-6.84,4.64-14.77.86-1.47,8.91-13.06,10.26-14.65,10.26-19.17,0-5-5-5-16.11,0-55.29,66.16a35.66,35.66,0,0,0-6.72-.49,62.88,62.88,0,0,0-8.54.49L706,536.31q17-27.09,17-33.2,0-5.49-4.52-5.49-6.7,0-22,19.28t-30.27,46.88a43.06,43.06,0,0,0-7.21-.49,60.86,60.86,0,0,0-8.3.49l17.46-27.47q18.06-28.32,18.07-35,0-3.66-2.82-3.66-6,0-24.83,26.18c-.82,1.14-1.47,1.71-2,1.71a.65.65,0,0,1-.48-.73q0-1.1,11.24-15.23,11-13.77,17-13.76,3.92,0,6.72,3.72a14.23,14.23,0,0,1,2.82,8.85q0,7.08-7.21,19.65,22-32.22,32.72-32.22a10.28,10.28,0,0,1,8.42,4.15,16.12,16.12,0,0,1,3.3,10.37q0,7-6.47,17.7,23.19-32.22,34.79-32.22a10.93,10.93,0,0,1,8.85,4.51,17.09,17.09,0,0,1,3.6,11q0,7.56-6,17.7-.13.12-10.5,15.62-6,8.79-6,13.43,0,5,5,5,9.54,0,31.54-30.81l3.79-5.26,2.2-2.69c.41-.81.81-1.22,1.22-1.22A.64.64,0,0,1,793.93,523.8Z" transform="translate(-125.71 -256.94)"/><path d="M623.65,581.14l27.5-43.27a14.2,14.2,0,0,1-8.53-13.09c0-5.46,1.78-8.06,14.18-23.64,10.57-13.22,18.81-18.85,27.56-18.85a21.42,21.42,0,0,1,16.51,7.86c6.58-5.42,12.56-7.86,18.54-7.86a23.84,23.84,0,0,1,19,9.25l.05.06c7.6-6.38,14.39-9.31,21-9.31a24.5,24.5,0,0,1,19.4,9.59,30.73,30.73,0,0,1,6.55,19.41c0,.21,0,.42,0,.63a14.21,14.21,0,0,1,22,11.88V526l-.69,2.07a20.43,20.43,0,0,1-2.92,5.38l-.2.28-5.25,7.21c-19.15,26.59-32.16,37.46-44.89,37.46a25.17,25.17,0,0,1-19.65-9A29.32,29.32,0,0,1,727,552c-3.49,5.47-7.3,11.67-11.46,18.69l-4.88,8.24L701.25,577a22.16,22.16,0,0,0-4.06-.23,50.64,50.64,0,0,0-6.69.36l-28.77,4,2.52-4-.38-.06a29.74,29.74,0,0,0-4.89-.29,48.49,48.49,0,0,0-6.45.36Z" transform="translate(-125.71 -256.94)"/><path class="cls-2" d="M855.7,523.92a14.44,14.44,0,0,1-2.2,3.17l-5.25,6.58Q823,564.89,804.88,564.88a18.93,18.93,0,0,1-14.36-6.17,21.63,21.63,0,0,1-5.8-15.44q0-22,30.64-38.7,16.11-8.79,26.24-8.78a11.27,11.27,0,0,1,7.51,2.62,8.11,8.11,0,0,1,3.11,6.41q0,8.79-11.47,14.95t-38.33,11.54q-8.31,12.57-8.3,21,0,10.5,11.36,10.5,19.31,0,47.29-37.66c1-1.3,1.79-1.95,2.44-1.95A.65.65,0,0,1,855.7,523.92Zm-10.32-22.64q0-3.91-4.27-3.91-6.47,0-17,9a126.46,126.46,0,0,0-20.69,23.26q17.58-4.51,29.79-12.76T845.38,501.28Z" transform="translate(-125.71 -256.94)"/><path d="M804.88,578.38A32.42,32.42,0,0,1,780.69,568a34.23,34.23,0,0,1-8.6-16.38l-1,.26.84-1.18a39.75,39.75,0,0,1-.68-7.39c0-19.89,12.67-36.9,37.67-50.55,12.88-7,23.58-10.43,32.71-10.43a24.77,24.77,0,0,1,16.21,5.8,21.62,21.62,0,0,1,7.91,16.73,26.41,26.41,0,0,1-1.34,8.37,14.26,14.26,0,0,1,4.82,10.73c0,5-2.58,8.32-5.07,11.5l-5.33,6.68C839,566.53,821.37,578.38,804.88,578.38Zm6-35a35.07,35.07,0,0,0-2.51,5.46C811,548,815,545.94,820.7,541Q816.1,542.21,810.89,543.33Z" transform="translate(-125.71 -256.94)"/><path class="cls-2" d="M925.28,523.8q0,1-7.34,8.94Q908.66,543,900.46,543q-9.3,0-9.3-10.75a33.5,33.5,0,0,1,1.47-8.66,83.24,83.24,0,0,0-12.52,13.3q-4.82,6.6-16.66,26.86-6.47-.49-7.57-.49-.48,0-7.44.49l20-32.47q15-24.42,15-30.28,0-3.4-2.81-3.41-6.85,0-24.83,26.3c-.74,1.14-1.39,1.71-2,1.71-.33-.08-.49-.32-.49-.73a1.9,1.9,0,0,1,.49-1l2.2-3.06q18.82-25.07,25.55-25.07,9.78,0,9.79,12.57,0,9.4-10,24.9a97,97,0,0,1,12.08-12A61.29,61.29,0,0,1,905,503.11q6.88-7.32,12.39-7.32c2.52,0,3.78,1.09,3.78,3.29q0,5.87-17,16.72c-1.79,1.15-4.47,2.81-8.05,5L894.7,522a33.22,33.22,0,0,0-1.71,9.28q0,10.25,7.71,10.25,9.54,0,20.79-15.8c1.63-1.79,2.65-2.69,3.06-2.69A.64.64,0,0,1,925.28,523.8Z" transform="translate(-125.71 -256.94)"/><path d="M823.14,579.09,848.46,538a14.22,14.22,0,0,1-8.58-13.11v-1.31l.25-1.29a15.5,15.5,0,0,1,3.09-6.7l2-2.84c16.9-22.5,26.41-30.47,36.35-30.47A22.66,22.66,0,0,1,899.14,490c6-5.21,12-7.75,18.27-7.75,10,0,17.28,7.06,17.28,16.79a20.32,20.32,0,0,1-4.05,11.81,14.08,14.08,0,0,1,8.14,12.91c0,6-3.14,9.66-10.86,18-8.83,9.75-18.06,14.69-27.46,14.69A22.69,22.69,0,0,1,886.3,552c-2.57,4.08-6.17,10-11.19,18.61l-4.26,7.29-8.42-.64c-4.27-.32-5.87-.41-6.43-.44s-2.24.14-6.62.45Zm109.29-45.24Z" transform="translate(-125.71 -256.94)"/><path class="cls-2" d="M303.59,464.54q0,18.68-10.49,38a121.44,121.44,0,0,1-29.06,35,152.34,152.34,0,0,1-38.27,24q-20.45,8.85-37.53,8.85-22.47,0-36.44-15.26t-14-39.79q0-22.47,13.92-45.78a132.46,132.46,0,0,1,37.6-40.16,151.52,151.52,0,0,1,37.9-19.78q21.06-7.56,38-7.56t26.92,8.17q10.06,8.19,10.07,21.85a55.32,55.32,0,0,1-1.95,13.31A58.91,58.91,0,0,1,303.59,464.54Zm-3.29-32.23q0-12.33-8.67-19.84T268.8,405q-28.08,0-56.76,18.67a148.19,148.19,0,0,0-45,46q-18.44,29-18.44,57.46,0,18,10.69,29.39t27.52,11.35q34.18,0,68.73-35.16T293.83,459q-4.15,7.32-14.83,17.28t-14.47,9.94a.86.86,0,0,1-1-1c0-.41.66-1,2-1.71q19.77-11,28.56-29.05,0-15.27-8.91-24.24t-24.17-9q-28.32,0-58.17,30.21t-29.84,59q0,11.48,5.37,18.61a16.88,16.88,0,0,0,14.16,7.14,17.18,17.18,0,0,0,8.48-2.44c2.89-1.63,4.34-3.21,4.34-4.76-.08-.49-.25-.73-.49-.73l-1.1.49c-1,1-2.56,1.46-4.76,1.46q-5.74,0-5.74-6.71a9.45,9.45,0,0,1,2.81-7,9.17,9.17,0,0,1,6.71-2.81q7.81,0,7.82,8.67,0,6.47-5.56,11.23a19.37,19.37,0,0,1-13,4.76q-10.5,0-17.52-8.61t-7-21.54q0-29.79,31.06-59.39t62.2-29.6a45.34,45.34,0,0,1,23.8,6.29q10.5,6.29,14.28,16.41A33.69,33.69,0,0,0,300.3,432.31Z" transform="translate(-125.71 -256.94)"/><path class="cls-2" d="M361.82,437.31q-51.27,85.33-59.75,100.35t-8.49,19.89c0,3.66,1.55,5.5,4.65,5.5q10.26,0,37.65-38.76c.41-.81.89-1.22,1.47-1.22.32.08.48.32.48.73s-.4,1.14-1.22,2L331.36,533q-23.1,31.9-34.1,31.91a10.81,10.81,0,0,1-8.62-4,15,15,0,0,1-3.36-10.07,28.89,28.89,0,0,1,3.12-13q3.11-6.29,21.18-36.32,22.08-36.74,37.23-63.72a25.51,25.51,0,0,0,6.47,1A24,24,0,0,0,361.82,437.31Z" transform="translate(-125.71 -256.94)"/><path class="cls-2" d="M448.61,438.53q-45.76,72.77-57.74,93-12.08,20.64-12.08,26c0,3.66,1.67,5.5,5,5.5q11.13,0,37.77-38.76c.49-.81.94-1.22,1.35-1.22a.64.64,0,0,1,.73.73,13.31,13.31,0,0,1-1.22,2L417.17,533q-23.1,31.9-34.09,31.91a11.45,11.45,0,0,1-9.17-4.21,16.23,16.23,0,0,1-3.54-10.81q0-6.58,4.39-15.26Q353.4,564.89,343,564.88a13.35,13.35,0,0,1-10.86-5.56q-4.4-5.55-4.4-14,0-20.15,25-36.5,19.89-13.07,31.25-13.06,7.56,0,7.57,7.32a18,18,0,0,1-2.08,7.69l43.58-73A27.07,27.07,0,0,0,441,439Q442,439,448.61,438.53Zm-58.83,65.56q0-6.48-6-6.47-11,0-29,21.91t-18,35.34q0,8.18,6.71,8.18,9.76,0,33.57-33.94Q389.77,510.79,389.78,504.09Z" transform="translate(-125.71 -256.94)"/><path class="cls-2" d="M754.28,412.29q0,6.58-13.19,11.17T708.87,428q-19.17,0-47.61-5.25-15,7.81-27.47,23.13t-26.73,43.4q-14.28,28.07-20.93,37.41a85.63,85.63,0,0,1-18.25,18.13q-30.64,22.7-63.6,22.7-17.58,0-28.75-7.44t-11.17-19.29a15.52,15.52,0,0,1,3.54-10.25,10.64,10.64,0,0,1,8.42-4.28q7.94,0,7.94,8.3a9.93,9.93,0,0,1-2.44,6.72,7.66,7.66,0,0,1-6,2.81c-3.82,0-5.73-1.88-5.73-5.62,0-2-.33-2.93-1-2.93-1.38,0-2.07,2-2.07,6q0,9.88,10.19,16.73t25.08,6.83q32.71,0,58.72-29.54,12.21-13.8,31.49-45.53,31.5-51.51,65.8-67.75-6.58-1.1-19.78-4-31-6.7-47.48-6.71-1.71,0-10.25.48a51.38,51.38,0,0,1,5.73,24.54q0,26.87-20.38,50.42t-43.58,23.56q-9.65,0-15.69-6.41t-6-16.54q0-13.92,10.56-30.83a109.47,109.47,0,0,1,27.34-29.54,101.74,101.74,0,0,1,36.81-17.64q-9.65-13.05-27.45-13.06-15,0-30.31,8.75a90.33,90.33,0,0,0-26.9,23.78c-1.14,1.55-1.91,2.32-2.32,2.32a1,1,0,0,1-1-.73q0-2.07,10-12.11,24-24,50.26-24,20.37,0,31,14.28,14.77-4.28,33.94-4.27a123.33,123.33,0,0,1,18.06,1.22q8.67,1.35,42.48,8.3,28.2-12.33,54.2-12.33Q754.29,401.79,754.28,412.29ZM581.79,430.6a37.23,37.23,0,0,0-4.51-18.07q-27.36,4.52-50.91,28.2t-23.56,46.63a21.11,21.11,0,0,0,5.44,14.77,17.33,17.33,0,0,0,13.36,6q20.63,0,40.41-25.45T581.79,430.6Zm170.53-18.07q0-3.54-6.89-6T728,404.11a122.65,122.65,0,0,0-50.66,11q3.06.48,16.24,2.93a184.79,184.79,0,0,0,34.67,3.78,46.7,46.7,0,0,0,17-2.75Q752.32,416.32,752.32,412.53Z" transform="translate(-125.71 -256.94)"/><path class="cls-2" d="M656.56,523.8a13.31,13.31,0,0,1-1.22,2L650.08,533q-23,31.9-35.07,31.91a12.64,12.64,0,0,1-9.59-4.09,14.28,14.28,0,0,1-3.85-10.2q0-7.07,8.42-21.48l19-32.35a28.94,28.94,0,0,0,6,.86,70.46,70.46,0,0,0,9.28-.86l-27.71,45.53q-6,9.9-6,15.26c0,3.66,1.92,5.5,5.75,5.5q10.88,0,38.26-38.76c.4-.81.81-1.22,1.22-1.22A.64.64,0,0,1,656.56,523.8Zm-1.77-50.48a11.37,11.37,0,0,1-3.6,8,10.82,10.82,0,0,1-7.87,3.72q-5.51,0-5.5-5.49,0-4,3.79-7.75t7.93-3.72Q654.79,468.08,654.79,473.32Z" transform="translate(-125.71 -256.94)"/><path class="cls-2" d="M792.55,523.8a14.35,14.35,0,0,1-1.22,2L786.07,533q-23,31.9-34,31.91a11.87,11.87,0,0,1-9.42-4.28,16.27,16.27,0,0,1-3.66-11q0-6.84,4.64-14.77.86-1.47,8.91-13.06,10.24-14.65,10.25-19.17,0-5-5-5-16.11,0-55.3,66.16a35.61,35.61,0,0,0-6.71-.49,63,63,0,0,0-8.55.49l17.33-27.47q17-27.09,17-33.2,0-5.49-4.51-5.49-6.72,0-22,19.28T664.8,563.78a42.85,42.85,0,0,0-7.2-.49,60.76,60.76,0,0,0-8.3.49l17.45-27.47q18.07-28.32,18.07-35,0-3.66-2.81-3.66-6,0-24.84,26.18-1.21,1.71-1.95,1.71a.65.65,0,0,1-.49-.73q0-1.1,11.25-15.23,11-13.77,17-13.76,3.91,0,6.73,3.72a14.28,14.28,0,0,1,2.81,8.85q0,7.08-7.2,19.65,22-32.22,32.71-32.22a10.3,10.3,0,0,1,8.43,4.15,16.17,16.17,0,0,1,3.29,10.37q0,7-6.47,17.7,23.19-32.22,34.79-32.22a10.93,10.93,0,0,1,8.85,4.51,17.09,17.09,0,0,1,3.6,11q0,7.56-6,17.7-.12.12-10.5,15.62-6,8.79-6,13.43,0,5,5,5,9.54,0,31.54-30.81l3.79-5.26,2.2-2.69c.41-.81.82-1.22,1.22-1.22A.65.65,0,0,1,792.55,523.8Z" transform="translate(-125.71 -256.94)"/><path class="cls-2" d="M854.31,523.92a14.59,14.59,0,0,1-2.19,3.17l-5.26,6.58q-25.29,31.22-43.37,31.21a18.94,18.94,0,0,1-14.36-6.17,21.63,21.63,0,0,1-5.8-15.44q0-22,30.64-38.7,16.11-8.79,26.24-8.78a11.25,11.25,0,0,1,7.51,2.62,8.08,8.08,0,0,1,3.11,6.41q0,8.79-11.47,14.95T801,531.31q-8.29,12.57-8.3,21,0,10.5,11.36,10.5,19.3,0,47.29-37.66c1-1.3,1.79-1.95,2.45-1.95A.65.65,0,0,1,854.31,523.92ZM844,501.28c0-2.61-1.43-3.91-4.27-3.91q-6.48,0-17,9A126.09,126.09,0,0,0,802,529.6q17.58-4.51,29.78-12.76T844,501.28Z" transform="translate(-125.71 -256.94)"/><path class="cls-2" d="M923.89,523.8q0,1-7.33,8.94Q907.26,543,899.07,543q-9.3,0-9.29-10.75a33.43,33.43,0,0,1,1.46-8.66,82.69,82.69,0,0,0-12.51,13.3q-4.83,6.6-16.66,26.86-6.48-.49-7.57-.49-.5,0-7.45.49l20-32.47q15-24.42,15-30.28c0-2.27-.93-3.41-2.81-3.41q-6.84,0-24.83,26.3c-.73,1.14-1.39,1.71-2,1.71-.32-.08-.48-.32-.48-.73a1.89,1.89,0,0,1,.48-1l2.2-3.06q18.84-25.07,25.56-25.07,9.78,0,9.78,12.57,0,9.4-10,24.9a97.66,97.66,0,0,1,12.08-12,61.49,61.49,0,0,1,11.54-18.19q6.9-7.32,12.39-7.32c2.52,0,3.78,1.09,3.78,3.29q0,5.87-17,16.72c-1.79,1.15-4.48,2.81-8.06,5L893.32,522a32.86,32.86,0,0,0-1.71,9.28q0,10.25,7.7,10.25,9.54,0,20.79-15.8c1.63-1.79,2.65-2.69,3.06-2.69A.64.64,0,0,1,923.89,523.8Z" transform="translate(-125.71 -256.94)"/></svg>